<?xml version="1.0" standalone="no"?>
<svg version="1.0" xmlns="http://www.w3.org/2000/svg"
     width="512.000000pt" height="512.000000pt" viewBox="0 0 512.000000 512.000000"
     preserveAspectRatio="xMidYMid meet">

    <g transform="translate(0.000000,512.000000) scale(0.100000,-0.100000)"
       fill="white" stroke="none">
        <path d="M912 5104 c-63 -17 -82 -26 -145 -71 -63 -46 -123 -132 -147 -211
-20 -63 -20 -98 -20 -2092 0 -2009 0 -2029 20 -2094 32 -102 106 -191 202
-241 87 -46 147 -55 355 -55 l193 0 0 -116 c0 -136 14 -170 83 -205 67 -35
104 -24 274 78 l150 90 114 -69 c181 -110 206 -121 257 -115 48 5 84 27 116
71 18 23 21 45 24 146 l4 120 886 2 887 3 53 29 c57 32 98 79 118 135 9 25 13
108 14 281 l0 245 36 20 c48 26 111 99 124 144 6 23 10 674 10 1882 l0 1845
-26 52 c-29 58 -82 105 -144 127 -62 22 -3356 21 -3438 -1z m3391 -166 c12 -6
27 -18 34 -27 10 -12 12 -422 13 -1838 l0 -1822 -24 -28 -24 -28 -1596 -3
-1596 -2 0 1880 0 1880 1586 0 c1186 0 1591 -3 1607 -12z m-3363 -1879 l0
-1871 -22 -6 c-13 -3 -51 -20 -85 -37 l-63 -32 0 1810 c0 1344 3 1820 12 1848
17 59 112 159 151 159 4 0 7 -842 7 -1871z m3240 -2265 l0 -226 -29 -29 -29
-29 -866 0 -866 0 0 84 0 85 146 3 c146 3 146 3 170 31 31 37 31 81 -1 112
l-24 25 -804 0 -804 0 -20 -22 c-29 -32 -34 -53 -21 -88 17 -50 50 -60 203
-60 l136 0 -3 -82 -3 -83 -205 0 c-192 0 -208 1 -246 22 -192 102 -191 368 1
459 l50 24 1608 0 1607 0 0 -226z m-1960 -363 l0 -250 -104 64 c-56 35 -127
75 -156 90 -80 41 -111 34 -273 -64 -74 -44 -138 -81 -141 -81 -3 0 -6 110 -6
245 l0 245 340 0 340 0 0 -249z"/>
        <path d="M2625 4259 c-122 -18 -247 -66 -352 -136 -77 -51 -192 -161 -239
-228 -34 -50 -41 -55 -75 -55 -61 0 -174 -27 -241 -58 -172 -79 -303 -238
-339 -411 -17 -85 -6 -281 21 -361 66 -195 198 -344 400 -449 41 -21 94 -45
118 -52 l42 -12 0 -192 c0 -240 9 -278 83 -350 32 -31 68 -55 93 -63 31 -9
186 -12 596 -12 617 0 614 0 682 66 76 74 81 93 84 335 l3 216 42 13 c72 21
210 98 280 155 176 145 267 337 270 565 1 173 -54 311 -174 431 -102 103 -273
177 -414 179 -36 1 -43 5 -75 51 -19 28 -74 87 -121 133 -140 132 -299 210
-483 235 -87 12 -115 12 -201 0z m259 -185 c33 -9 95 -33 136 -55 151 -78 264
-193 345 -350 46 -90 56 -99 106 -99 35 0 79 39 79 71 0 19 4 21 35 15 143
-27 280 -152 321 -294 20 -69 20 -197 -1 -276 -58 -221 -299 -421 -522 -434
l-72 -4 46 90 c60 117 68 185 29 222 -32 29 -86 32 -114 6 -11 -9 -25 -38 -31
-63 -23 -90 -79 -177 -145 -225 -38 -27 -43 -28 -158 -28 l-118 0 0 124 c0 67
-5 137 -11 155 -16 44 -59 66 -105 51 -19 -6 -39 -20 -44 -30 -6 -10 -10 -82
-10 -159 l0 -141 -123 0 c-121 0 -124 0 -165 31 -53 39 -118 136 -138 208 -9
31 -24 65 -35 76 -27 28 -82 25 -115 -5 -24 -23 -26 -30 -21 -79 4 -36 21 -84
51 -143 l44 -90 -71 4 c-180 10 -400 161 -480 329 -47 99 -60 167 -55 280 3
75 9 106 31 152 51 112 186 222 300 242 33 7 37 5 37 -14 0 -34 44 -71 83 -71
47 0 61 14 107 103 51 100 118 186 200 254 70 59 195 126 275 148 70 19 233
19 309 -1z m446 -1783 c0 -178 0 -180 -26 -210 l-26 -31 -543 0 -544 0 -28 24
-28 24 -3 186 -3 186 600 0 601 0 0 -179z"/>
        <path d="M2930 830 c-28 -28 -36 -69 -19 -99 29 -51 34 -51 472 -49 l409 3 24
28 c31 37 31 81 -1 112 l-24 25 -421 0 c-405 0 -421 -1 -440 -20z"/>
    </g>
</svg>
