<?xml version="1.0" standalone="no"?>
<svg version="1.0" xmlns="http://www.w3.org/2000/svg"
     width="512.000000pt" height="512.000000pt" viewBox="0 0 512.000000 512.000000"
     preserveAspectRatio="xMidYMid meet">

    <g transform="translate(0.000000,512.000000) scale(0.100000,-0.100000)"
       fill="white" stroke="none">
        <path d="M3371 4498 c-29 -16 -128 -121 -333 -353 l-291 -330 -1301 -5 -1301
-5 -47 -27 c-25 -15 -57 -45 -70 -65 l-23 -38 -3 -1450 c-2 -1012 0 -1461 8
-1487 14 -50 56 -97 105 -119 38 -18 133 -19 2445 -19 2317 0 2406 1 2445 19
48 22 79 54 100 103 13 33 15 235 15 1838 0 1603 -2 1805 -15 1838 -21 49 -52
81 -100 103 -38 18 -83 19 -816 19 l-776 0 -42 -22z m1359 -1938 l0 -1570
-2170 0 -2170 0 0 1215 0 1215 1253 2 1254 3 37 28 c20 16 166 175 324 353
l286 324 593 0 593 0 0 -1570z"/>
        <path d="M2090 3063 c-256 -28 -403 -153 -430 -367 -31 -248 72 -459 416 -846
171 -192 453 -460 484 -460 25 0 82 49 259 223 273 270 459 496 555 678 55
105 74 162 87 259 18 150 -17 283 -102 374 -105 115 -350 170 -520 117 -104
-33 -221 -119 -268 -197 -11 -19 -11 -19 -22 0 -80 134 -294 236 -459 219z"/>
        <path d="M277 4479 c-64 -15 -116 -48 -144 -91 -27 -40 -28 -45 -31 -210 l-3
-168 1149 0 1150 0 232 240 232 240 -1273 -1 c-702 -1 -1291 -5 -1312 -10z"/>
    </g>
</svg>
