<?xml version="1.0" standalone="no"?>
<svg version="1.0" xmlns="http://www.w3.org/2000/svg"
     width="512.000000pt" height="512.000000pt" viewBox="0 0 512.000000 512.000000"
     preserveAspectRatio="xMidYMid meet">

    <g transform="translate(0.000000,512.000000) scale(0.100000,-0.100000)"
       fill="#ff4500" stroke="none">
        <path d="M3573 4880 c-234 -26 -467 -116 -656 -251 -45 -32 -145 -119 -222
-192 l-140 -134 -125 119 c-148 142 -249 220 -362 282 -554 300 -1226 202
-1666 -245 -194 -197 -320 -437 -379 -719 -27 -129 -24 -400 6 -540 40 -186
112 -353 224 -520 38 -57 324 -349 1176 -1203 l1126 -1127 233 233 233 233
-21 105 c-30 146 -24 387 13 530 116 443 443 766 896 886 84 23 118 26 271 27
137 1 194 -3 265 -18 l89 -19 136 139 c74 77 161 176 192 220 109 152 189 336
230 526 31 146 31 419 0 560 -123 559 -542 976 -1091 1088 -112 23 -322 33
-428 20z"/>
        <path d="M4048 2060 c-360 -65 -645 -328 -739 -680 -32 -119 -32 -337 0 -455
44 -165 135 -318 257 -436 86 -81 143 -120 248 -170 127 -59 236 -83 386 -83
150 0 259 24 386 83 105 50 162 89 248 170 122 118 213 271 257 436 30 108 32
337 6 435 -95 348 -324 585 -658 680 -83 24 -307 36 -391 20z m302 -575 l0
-185 185 0 185 0 0 -150 0 -150 -185 0 -185 0 0 -185 0 -185 -150 0 -150 0 0
185 0 185 -185 0 -185 0 0 150 0 150 185 0 185 0 0 185 0 185 150 0 150 0 0
-185z"/>
    </g>
</svg>
