<?xml version="1.0" standalone="no"?>
<svg version="1.0" xmlns="http://www.w3.org/2000/svg"
     width="512.000000pt" height="512.000000pt" viewBox="0 0 512.000000 512.000000"
     preserveAspectRatio="xMidYMid meet">
    <g transform="translate(0.000000,512.000000) scale(0.100000,-0.100000)"
       fill="#ff4500" stroke="none">
        <path d="M3405 4914 c-297 -43 -573 -165 -787 -347 -58 -49 -68 -54 -79 -40
-33 39 -220 167 -317 216 -129 66 -244 108 -383 139 -91 20 -131 23 -314 23
-229 0 -293 -9 -475 -67 -446 -142 -807 -497 -964 -947 -63 -180 -79 -281 -80
-491 -1 -274 39 -450 155 -685 115 -234 92 -208 1288 -1407 603 -604 1100
-1098 1106 -1098 5 0 125 115 265 255 l256 256 32 -49 c113 -175 350 -352 562
-420 224 -72 494 -70 703 5 297 106 542 334 657 609 63 152 83 251 84 424 1
163 -7 218 -51 355 -68 213 -232 436 -409 555 -27 18 -51 35 -53 36 -2 2 36
46 85 99 222 240 354 498 410 800 28 148 26 402 -4 552 -122 612 -577 1073
-1192 1208 -73 16 -423 29 -495 19z m322 -299 c382 -26 769 -290 956 -652 96
-185 132 -340 132 -563 0 -170 -11 -245 -57 -385 -65 -197 -166 -351 -350
-532 l-113 -113 -75 16 c-102 22 -310 21 -415 -1 -276 -58 -511 -206 -676
-424 -182 -242 -256 -569 -198 -874 l13 -68 -195 -195 -194 -194 -996 997
c-1042 1044 -1046 1047 -1133 1221 -86 171 -121 328 -121 542 0 169 11 243 56
383 126 389 461 702 855 803 286 72 578 42 840 -86 148 -72 245 -144 388 -289
l110 -110 141 137 c77 75 172 158 210 183 132 88 288 154 443 189 57 13 231
28 272 24 14 -2 62 -6 107 -9z m492 -2536 c218 -55 417 -219 516 -424 55 -112
74 -184 82 -305 25 -385 -231 -733 -611 -830 -108 -27 -273 -27 -382 0 -103
26 -243 96 -322 161 -121 100 -226 264 -268 419 -25 90 -25 309 0 400 27 100
98 238 163 315 201 240 517 341 822 264z"/>
        <path d="M3860 1605 l0 -155 -155 0 -155 0 0 -150 0 -150 155 0 155 0 0 -155
0 -155 150 0 150 0 0 155 0 155 160 0 160 0 0 150 0 149 -157 3 -158 3 -3 153
-3 152 -149 0 -150 0 0 -155z"/>
    </g>
</svg>
